# xmcd
# Track frame offsets:
# 150
# 12245
# 21012
# 35517
# 55457
# 72312
# 85407
# 97380
# 115105
#
# Disc length: 1670 seconds
# Revision: 0
# Processed by: cddbd v1.4PL0 Copyright (c) Steve Scherf et al.
# Submitted via: VisiTrax 2.9.5.180 - For more info visit www.synapsa.com
#
DISCID=78068409
DTITLE=Mister Jack and the daniels - Something to shoot
DYEAR=1993
DGENRE=
TTITLE0=Folsom prison blues
TTITLE1=Hello trouble
TTITLE2=Hello hopeville
TTITLE3=Mr Johnson's love
TTITLE4=Tennessee plates
TTITLE5=Is it still over
TTITLE6=Wheels
TTITLE7=Why not me
TTITLE8=looking out my backdoor
EXTD=
EXTT0=
EXTT1=
EXTT2=
EXTT3=
EXTT4=
EXTT5=
EXTT6=
EXTT7=
EXTT8=
PLAYORDER=
